# xmcd
#
# Track frame offsets: 
#        150
#        3062
#        52493
#        81731
#        111238
#        120934
#        188500
#        211304
#        241682
#        262844
#        295845
#        327734
#
# Disc length: 4745 seconds
#
# Revision: 0
# Processed by: cddbd v1.5.2PL0 Copyright (c) Steve Scherf et al.
# Submitted via: ExactAudioCopy v0.99pb3
#
DISCID=a612870c
DTITLE=Caroline Myss - The Language of Archetypes - The Wisom Family  
DTITLE=D06
DYEAR=2006
DGENRE=Speech
TTITLE0=Introduction
TTITLE1=The Mystic
TTITLE2=Mystical Experience
TTITLE3=The Teacher or Student
TTITLE4=The Philosopher
TTITLE5=Wisdom carriers - The Sage, the Oracle, and the Crone
TTITLE6=Seeking wisdom in unwise ways
TTITLE7=The Seeker and the Wanderer
TTITLE8=The Hermit
TTITLE9=The Alchemist
TTITLE10=The Storyteller
TTITLE11=The Judge or Critic
EXTD=
EXTT0=
EXTT1=
EXTT2=
EXTT3=
EXTT4=
EXTT5=
EXTT6=
EXTT7=
EXTT8=
EXTT9=
EXTT10=
EXTT11=
PLAYORDER=
